<?xml version="1.0" encoding="utf-8"?>
<!-- Generator: Adobe Illustrator 22.0.1, SVG Export Plug-In . SVG Version: 6.00 Build 0)  -->
<svg version="1.1" id="Capa_1" xmlns="http://www.w3.org/2000/svg" xmlns:xlink="http://www.w3.org/1999/xlink" x="0px" y="0px"
	 viewBox="0 0 117.4 36.6" style="enable-background:new 0 0 117.4 36.6;" xml:space="preserve">
<style type="text/css">
	.st0{fill:#201913;}
</style>
<g>
	<g>
		<path class="st0" d="M8,27.3c-2.5-2.5-3.7-5.5-3.7-9c0-3.5,1.2-6.5,3.7-9c2.5-2.5,5.5-3.7,9-3.7c3.5,0,6.5,1.2,9,3.7
			c2.5,2.5,3.7,5.5,3.7,9c0,3.5-1.2,6.5-3.7,9c-2.5,2.5-5.5,3.7-9,3.7C13.5,31,10.5,29.8,8,27.3z M8.8,10.1c-2.3,2.3-3.4,5-3.4,8.2
			c0,3.2,1.1,5.9,3.4,8.2c2.3,2.3,5,3.4,8.2,3.4c3.2,0,5.9-1.1,8.2-3.4c2.3-2.3,3.4-5,3.4-8.2c0-3.2-1.1-5.9-3.4-8.2
			c-2.3-2.3-5-3.4-8.2-3.4C13.8,6.7,11.1,7.8,8.8,10.1z"/>
		<path class="st0" d="M37.5,5.7h1.1v24.8h-1.1V5.7z"/>
		<path class="st0" d="M66.3,5.7v24.8h-1.8L47.8,6.4v24.1h-1.1V5.7h2l16.5,23.7V5.7H66.3z"/>
		<path class="st0" d="M94.1,5.7L81.3,17.5l13.7,13h-1.7L80.5,18.2l-5.9,5.4v6.8h-1.1V5.7h1.1v16.4L92.4,5.7H94.1z"/>
		<g>
			<path class="st0" d="M14.1,18.4c0,1.8-0.6,3.2-1.4,3.2c-0.8,0-1.4-1.4-1.4-3.2c0-1.8,0.6-3.2,1.4-3.2
				C13.5,15.2,14.1,16.7,14.1,18.4z"/>
			<path class="st0" d="M23,18.4c0,1.8-0.6,3.2-1.4,3.2c-0.8,0-1.4-1.4-1.4-3.2c0-1.8,0.6-3.2,1.4-3.2C22.3,15.2,23,16.7,23,18.4z"
				/>
		</g>
		<path class="st0" d="M103.3,11.8c-0.6-0.1-1.4-0.4-1.4-0.6c0-0.1,0-0.4,1.4-1.1c0.1,0,0.1-0.1,0.1-0.2c0-0.1-0.1-0.2-0.2-0.2
			c-0.7-0.2-1.4-0.6-1.4-0.7c0,0,0-0.2,1-0.6c0.1,0,0.2-0.1,0.2-0.2V7.7L102.9,6l-0.2,1.7v0.2c-0.8,0.3-1.2,0.6-1.2,1
			c0,0.5,0.7,0.8,1.2,1c-0.9,0.5-1.2,0.9-1.2,1.4c0.1,0.5,0.6,0.7,1.1,0.9c-0.7,0.3-1,0.7-0.9,1c0,0.2,0.1,0.4,0.3,0.5v16.9h1.1V14
			v-0.1v-0.3c-0.5-0.1-1-0.4-1.1-0.6c0,0,0-0.3,1.3-0.9c0.1,0,0.1-0.1,0.1-0.2C103.5,11.9,103.4,11.8,103.3,11.8z"/>
		<path class="st0" d="M113,11.8c-0.6-0.1-1.4-0.4-1.4-0.6c0-0.1,0-0.4,1.4-1.1c0.1,0,0.1-0.1,0.1-0.2c0-0.1-0.1-0.2-0.2-0.2
			c-0.7-0.2-1.4-0.6-1.4-0.7c0,0,0-0.2,1-0.6c0.1,0,0.2-0.1,0.2-0.2V7.7L112.5,6l-0.2,1.7v0.2c-0.8,0.3-1.2,0.6-1.2,1
			c0,0.5,0.7,0.8,1.2,1c-0.9,0.5-1.2,0.9-1.2,1.4c0.1,0.5,0.6,0.7,1.1,0.9c-0.7,0.3-1,0.7-0.9,1c0,0.2,0.1,0.4,0.3,0.5v16.9h1.1V14
			v-0.1v-0.3c-0.5-0.1-1-0.4-1.1-0.6c0,0,0-0.3,1.3-0.9c0.1,0,0.1-0.1,0.1-0.2C113.1,11.9,113.1,11.8,113,11.8z"/>
	</g>
</g>
</svg>
